<svg width="200" height="200" viewBox="0 0 200 200" fill="none" xmlns="http://www.w3.org/2000/svg">
<circle cx="100" cy="100" r="100" fill="#7B4D35"/>
<path d="M119.773 93.4964C117.74 93.598 115.727 93.9561 113.783 94.5622C112.973 94.8127 112.185 95.0952 111.369 95.4362C102.842 99.0388 93.9533 104.965 88.0751 112.49C86.8088 114.14 85.626 115.853 84.5312 117.622C84.2533 118.222 84.1094 118.876 84.1094 119.538C84.1094 120.199 84.2533 120.853 84.5312 121.454C84.7983 122.026 85.1585 122.55 85.597 123.004C86.2419 123.692 86.1992 123.761 87.3024 123.809C87.2651 121.528 90.2281 116.785 91.5658 115.282C98.1261 107.747 104.995 102.418 114.604 98.3513C124.682 94.0879 129.526 98.3513 126.957 104.944C126.295 106.808 125.357 108.563 124.175 110.15L120.285 114.856C117.684 117.958 108.481 125.685 104.974 127.54C106.424 122.69 108.758 113.481 111.742 109.02C112.84 107.352 113.261 107.64 113.997 106.756C113.522 106.106 112.854 105.624 112.088 105.377C111.322 105.13 110.498 105.131 109.733 105.381C108.971 105.783 108.321 106.369 107.841 107.086C103.818 112.346 99.9647 127.22 99.2026 131.43C96.2502 134.51 97.9822 136.05 97.9822 136.05C96.847 141.214 95.9411 147.871 98.1634 151.676C99.4051 153.749 101.643 155.268 103.876 154.212C103.306 153.146 102.651 153.051 102.23 151.905C101.809 150.759 101.649 148.457 102.198 142.818L102.773 138.139C102.917 137.185 103.231 135.789 103.333 134.67V134.617C103.413 134.484 108.129 131.158 109.296 130.391C113.096 127.486 118.553 123.505 123.152 118.842C127.847 114.152 131.578 108.861 131.839 103.414C132.041 96.1397 126.446 93.1766 119.773 93.4964Z" fill="white"/>
<path d="M170.208 127.353C169.113 128.615 167.726 129.59 166.169 130.194L165.737 130.327C164.101 130.785 163.898 128.195 164.261 124.848C164.794 119.924 166.547 113.348 166.765 112.373C166.797 112.234 166.829 112.101 166.867 111.957C167.346 110.033 167.975 107.619 168.146 106.271C168.188 106.006 168.199 105.738 168.178 105.471C168.098 104.666 166.685 104.592 165.556 104.885C165.287 104.955 165.026 105.054 164.778 105.178C164.55 105.304 164.338 105.454 164.143 105.626C162.923 106.692 162.012 108.866 161.223 111.339C160.029 115.136 159.281 119.06 158.995 123.031C158.079 124.587 156.928 126.761 155.638 128.68C154.124 130.94 152.44 132.853 150.73 133.029C147.436 133.343 150.692 121.997 151.151 120.505C151.609 119.237 152.478 118.203 152.435 117.185C152.392 116.167 150.191 116.066 149.056 116.54C147.063 117.419 145.576 120.851 144.084 124.454C143.94 124.779 138.979 135.72 136.591 136.418C130.729 133.3 142.667 103.148 146.029 115.693C148.161 115.069 148.443 112.756 146.088 111.216C145.522 110.834 144.902 110.538 144.249 110.337C137.412 108.104 133.591 114.845 131.507 120.217C129.844 124.267 128.406 129.57 129.296 133.967C130.052 137.425 133.207 140.015 136.756 139.072C139.48 138.342 142.619 132.144 144.601 129.703C144.782 133.37 147.09 136.631 150.879 135.629C153.011 135.059 154.849 133.364 156.283 131.664L156.389 131.536C157.413 130.233 158.305 128.832 159.054 127.353C159.155 128.665 159.5 129.947 160.072 131.131C160.205 131.379 160.354 131.618 160.519 131.846C160.886 132.348 161.368 132.755 161.924 133.033C162.481 133.311 163.095 133.452 163.717 133.444C164.439 133.449 165.158 133.343 165.849 133.13C168.385 132.336 170.469 130.289 172.047 128.493C173.784 126.655 177.994 120.148 177.029 117.835C175.932 118.331 173.235 124.14 170.208 127.353Z" fill="white"/>
<path d="M165.407 102.231C166.001 102.668 166.742 102.857 167.473 102.758C168.204 102.658 168.868 102.278 169.324 101.698C169.845 101.016 170.184 100.213 170.31 99.3639C171.243 94.3278 169.457 92.0575 166.878 94.4077C166.055 95.2086 165.351 96.1239 164.789 97.1256C163.755 98.8683 163.915 100.403 164.624 101.426C164.834 101.739 165.1 102.012 165.407 102.231V102.231Z" fill="white"/>
<path d="M59.5734 150.29C60.8045 142.723 62.8723 134.009 63.7196 130.625C65.6381 122.845 69.0488 111.973 70.1893 111.211C70.2479 109.937 67.3648 109.852 64.7055 112.964C63.7889 114.03 60.6979 122.557 58.1186 132.352C57.6709 133.903 57.5856 134.265 57.2073 135.8C56.5035 135.334 55.735 134.975 54.9264 134.734C49.9649 133.237 46.6075 136.663 44.3798 140.623C43.6184 141.997 42.9524 143.421 42.3867 144.886C42.3067 145.099 42.2215 145.313 42.1469 145.52C40.8625 149.07 40.2656 153.237 40.8945 156.44C42.4933 162.366 46.7247 161.119 47.8225 160.815C50.0128 160.229 52.4216 156.206 54.3082 153.413C54.0844 159.195 55.2461 162.888 58.822 161.94C58.4383 160.458 58.5502 157.756 58.9393 154.516C59.1258 153.2 59.3336 151.766 59.5734 150.29ZM47.7053 158.199C46.1651 157.586 46.1065 154.218 46.8792 150.413C46.9698 150.029 47.0711 149.635 47.1777 149.246C47.5791 147.789 48.063 146.357 48.6272 144.956C50.9668 139.168 54.4468 134.643 56.4665 138.56L56.2694 139.53C55.7791 141.545 54.9583 144.684 54.3881 146.613C54.2176 147.146 54.0364 147.705 53.8552 148.26C53.3916 149.629 52.8853 151.004 52.331 152.283C51.036 155.262 49.4906 157.687 47.7053 158.199Z" fill="white"/>
<path d="M93.5049 136.088C90.9682 138.369 90.3873 138.981 86.9659 139.445C86.8753 134.201 84.3013 123.052 77.0802 124.982C76.4532 125.197 75.8769 125.538 75.3866 125.985C74.8963 126.431 74.5024 126.973 74.229 127.577C73.6961 127.374 72.9927 127.454 71.9801 127.721C68.1217 128.701 65.7023 135.469 65.7129 142.563C65.7129 149.826 68.9105 156.36 77.5172 153.935C82.5746 152.523 85.7029 147.332 86.6728 142.211C89.5986 141.491 94.2936 139.882 93.5049 136.088ZM77.0162 151.201C72.7529 152.454 71.4578 146.053 71.4685 142.675C71.4685 138.262 72.4331 133.263 74.2184 130.95C75.6253 134.921 79.4251 139.056 82.6812 140.756C83.0916 145.915 80.0805 150.269 77.0162 151.201ZM77.5119 128.067C79.7555 127.694 81.2423 130.62 82.0737 133.364C82.5093 134.815 82.8493 136.293 83.0915 137.788C80.0645 136.541 74.714 128.536 77.5119 128.072V128.067Z" fill="white"/>
<path d="M111.577 55.4243C111.608 54.6908 111.572 53.9559 111.47 53.2287C110.266 44.9151 99.9803 43.764 91.187 47.4412C82.6603 51.0437 73.7711 56.9752 67.893 64.4947C66.6231 66.1418 65.4384 67.853 64.3437 69.6214C64.0658 70.2219 63.9219 70.8756 63.9219 71.5373C63.9219 72.1989 64.0658 72.8527 64.3437 73.4531C64.6089 74.0265 64.9693 74.5509 65.4095 75.004C66.049 75.6914 66.0117 75.7607 67.1096 75.8087C67.0723 73.5278 70.0353 68.7901 71.3729 67.2819C77.9386 59.741 84.8026 54.4118 94.4165 50.3509C104.494 46.0875 109.338 50.3509 106.764 56.9378C106.105 58.8039 105.167 60.5593 103.983 62.1445L100.098 66.8502C97.4915 69.9518 88.2932 77.6792 84.7866 79.5338C86.2308 74.6842 88.5704 65.4753 91.5494 61.0147C92.6472 59.3467 93.0683 59.6344 93.8037 58.7498C93.3271 58.1023 92.659 57.6212 91.8938 57.3744C91.1287 57.1276 90.3054 57.1278 89.5403 57.3749C88.7784 57.7785 88.1297 58.3666 87.6537 59.0855C83.6248 64.3402 79.7718 79.2194 79.0151 83.4295C76.0627 86.5044 77.7894 88.0446 77.7894 88.0446C76.6596 93.2139 75.7482 99.8648 77.9705 103.675C79.2122 105.743 81.4505 107.262 83.6888 106.207C83.1186 105.141 82.4578 105.045 82.0367 103.899C81.6157 102.753 81.4559 100.451 82.0048 94.8127L82.5857 90.139C82.7296 89.1797 83.044 87.7835 83.1452 86.6696V86.6163C83.2252 86.4778 87.9415 83.1577 89.1086 82.3849C92.9031 79.4805 98.3602 75.4996 102.965 70.8365C106.098 67.7029 108.827 64.3029 110.335 60.7642C111.065 59.0729 111.486 57.2643 111.577 55.4243V55.4243Z" fill="white"/>
<path d="M113.698 90.8904C114.722 91.23 115.824 91.2578 116.864 90.9704C117.463 90.7773 118.01 90.4491 118.463 90.0111C120.749 87.9966 123.11 83.5574 124.714 81.6016C124.895 85.2734 127.203 88.5296 130.992 87.5277C133.123 86.9575 134.962 85.2628 136.396 83.5627C136.868 82.9967 137.306 82.4022 137.707 81.7828C138.512 80.57 139.214 79.2919 139.806 77.9617C140.267 79.2957 141.025 80.5075 142.023 81.5057C143.904 83.3176 146.692 84.0584 150.593 82.9605C154.627 81.8361 157.435 78.3028 158.901 74.3219C159.267 73.3196 159.552 72.2895 159.754 71.2416C160.414 71.0763 161.171 70.8632 161.933 70.5914C164.518 69.6694 167.188 68.044 166.58 65.1183C164.449 67.0155 163.719 67.7562 161.56 68.2199C161.118 68.3105 160.622 68.3957 160.041 68.4703C159.956 63.2317 157.377 52.083 150.161 54.0121C149.816 54.1108 149.487 54.2599 149.186 54.4545C148.378 54.9805 147.729 55.7177 147.31 56.5862C146.777 56.3837 146.073 56.4583 145.061 56.7301C141.528 57.6254 139.199 63.3756 138.842 69.776C138.81 70.3729 138.794 70.9698 138.794 71.572C138.789 72.7319 138.878 73.8903 139.06 75.036C138.341 76.2617 137.461 77.8445 136.534 79.374C134.845 82.1079 132.862 84.7032 130.869 84.911C127.576 85.2201 130.832 73.8742 131.285 72.382C131.748 71.1137 132.617 70.0798 132.575 69.0619C132.532 68.044 130.326 67.9428 129.196 68.4224C127.197 69.2964 125.716 72.7284 124.224 76.331C124.08 76.656 119.118 87.6023 116.725 88.2951C110.863 85.1775 122.806 55.03 126.163 67.575C128.295 66.9462 128.583 64.6386 126.222 63.0932C125.656 62.7133 125.039 62.4171 124.389 62.2138C117.551 59.9809 113.73 66.7224 111.641 72.0942C109.979 76.1444 108.54 81.4524 109.435 85.8436C109.652 86.9802 110.159 88.0416 110.905 88.9256C111.652 89.8095 112.614 90.4862 113.698 90.8904V90.8904ZM155.149 62.4004L155.197 62.5656C155.609 63.9647 155.931 65.3887 156.162 66.8289C153.14 65.5766 147.789 57.5721 150.582 57.1084C150.993 57.0356 151.417 57.0818 151.802 57.2417C153.38 57.8599 154.467 60.1887 155.149 62.4004ZM147.294 59.9862C148.701 63.9565 152.495 68.092 155.757 69.792C156.167 74.9454 153.156 79.2993 150.086 80.2373C145.823 81.4897 144.528 75.0893 144.539 71.7105C144.565 67.2979 145.514 62.2938 147.299 59.9862H147.294Z" fill="white"/>
<path d="M113.58 59.4266C113.822 59.6338 114.136 59.7389 114.454 59.7197C115.52 59.5279 115.317 56.4582 117.652 55.6429C120.759 54.641 123.274 57.6253 127.601 56.4689C129.946 55.8401 131.731 51.8111 131.284 49.3011C130.415 49.2478 130.01 50.1005 129.451 50.9958C126.066 56.0799 122.752 50.5588 118.536 51.6886C117.171 52.1028 115.979 52.9525 115.141 54.108C114.022 55.6474 113.471 57.5266 113.58 59.4266V59.4266Z" fill="white"/>
<path d="M46.7095 64.2123C41.1671 66.4026 36.6905 73.8475 34.5002 81.9853C33.1786 86.8988 32.6883 92.0682 33.3065 96.4808C33.5803 98.8301 34.331 101.099 35.5128 103.148C40.2558 110.8 49.1982 105.317 48.3722 95.4096C47.0133 95.8892 47.8393 95.5535 47.3596 96.5394C46.0913 99.2786 44.695 102.684 41.3536 102.934C39.9094 103.089 39.3072 102.338 38.5824 101.336C33.3544 94.2105 39.7815 70.8045 47.5515 67.3459C50.376 66.1361 52.7475 67.7296 54.1011 77.2636C55.604 87.5596 52.6569 103.686 45.99 112.335C43.3254 115.853 40.1279 118.48 37.1542 118.427C36.6597 118.409 36.1708 118.315 35.7046 118.149C33.445 117.355 31.4092 114.76 29.9384 109.431C28.9685 105.977 28.638 101.288 28.9045 96.2623C29.0888 92.809 29.5323 89.3744 30.2315 85.9875C31.4465 80.1574 33.429 74.6842 36.0936 70.9325C37.4473 68.9446 40.0106 65.7737 42.4035 64.7239C42.6166 64.6269 42.8377 64.5485 43.0643 64.4894C43.027 64.3881 42.9844 64.2976 42.9417 64.207C42.7882 63.8648 42.5677 63.5569 42.293 63.3015C42.0184 63.0461 41.6953 62.8484 41.343 62.7201C40.4531 62.3414 39.4573 62.2923 38.5344 62.5815C36.8984 63.0345 35.2516 64.2869 33.9247 65.7791C23.7565 77.3702 21.0652 98.0636 25.1847 111.946C26.6129 116.743 29.2349 119.407 32.198 120.601C33.8377 121.263 35.6121 121.522 37.3727 121.358L37.8576 121.299C41.1777 120.873 44.6577 119.023 47.6901 116.3C57.4106 107.518 61.2263 88.0126 58.6843 75.7661C57.5172 69.9572 54.261 61.2173 46.7095 64.2123Z" fill="white"/>
<path d="M45.056 61.0361L45.3971 60.8975C46.4588 60.4674 47.577 60.1928 48.7172 60.0821L49.0156 59.9169C51.0343 54.9476 54.4893 50.6934 58.9388 47.6982C63.3883 44.7031 68.6301 43.1032 73.9937 43.1032H74.0258C77.9201 37.8915 83.5714 34.2679 89.9328 32.9039C96.2942 31.5399 102.934 32.5279 108.623 35.6849C113.813 34.7986 119.149 35.4696 123.958 37.6131C128.766 39.7566 132.832 43.2767 135.642 47.729C139.474 48.4092 143.111 49.9168 146.301 52.1469C147.141 51.4037 148.137 50.8575 149.216 50.5481C149.762 50.402 150.32 50.3039 150.884 50.255C147.195 47.1777 142.848 44.9896 138.179 43.8599C135.289 39.8705 131.493 36.6241 127.103 34.3876C122.713 32.1511 117.856 30.9884 112.929 30.9952C111.737 30.9979 110.546 31.0744 109.364 31.2243C105.068 29.1047 100.341 28.0015 95.5505 28.0002C90.6168 27.9847 85.7516 29.1544 81.3641 31.4109C77.764 33.2695 74.5545 35.8023 71.91 38.8718C66.3253 39.2469 60.9439 41.1156 56.3285 44.2825C51.7132 47.4493 48.0335 51.7981 45.6742 56.8739C44.4593 57.5841 43.2932 58.3746 42.1836 59.2401C42.3701 59.3041 42.546 59.3733 42.7165 59.448C43.6033 59.7994 44.402 60.3416 45.056 61.0361V61.0361Z" fill="#ffb81c"/>
<path d="M38.6461 124.795C38.3156 124.843 37.9905 124.886 37.6708 124.918C37.2125 124.955 36.7382 124.976 36.2745 124.976C35.6349 124.976 34.9958 124.935 34.3613 124.854C34.5191 130.89 36.43 136.751 39.8611 141.721C40.5168 140.216 41.2939 138.767 42.1847 137.388C39.9811 133.548 38.7652 129.221 38.6461 124.795Z" fill="#ffb81c"/>
<path d="M161.512 77.3169C164.371 81.1157 166.166 85.6078 166.713 90.3309C167.358 90.0619 168.05 89.9225 168.749 89.9205C169.547 89.919 170.334 90.1129 171.04 90.4854C170.447 84.2841 168.008 78.4031 164.038 73.6024C163.622 73.773 163.19 73.9382 162.727 74.0927C162.404 75.1968 161.998 76.2746 161.512 77.3169V77.3169Z" fill="#ffb81c"/>
<path d="M154.082 138.161C152.626 143.986 149.266 149.158 144.535 152.856C139.804 156.554 133.974 158.566 127.969 158.572C127.751 158.572 127.543 158.545 127.324 158.54C123.181 163.026 117.632 165.966 111.593 166.874C105.554 167.782 99.3861 166.603 94.1071 163.533C88.354 165.342 82.1607 165.17 76.517 163.044C70.8732 160.919 66.1048 156.963 62.9737 151.809C62.59 154.308 62.3342 156.435 62.2383 158.071C66.0129 162.498 70.9484 165.784 76.4892 167.559C82.0301 169.334 87.9563 169.527 93.6008 168.116C99.3391 171.01 105.833 172.055 112.189 171.109C118.546 170.162 124.453 167.27 129.099 162.83C135.996 162.571 142.613 160.034 147.916 155.616C153.219 151.198 156.909 145.148 158.41 138.411C159.242 137.802 160.042 137.151 160.808 136.461C159.863 136.068 159.01 135.484 158.303 134.745C157.101 136.115 155.673 137.271 154.082 138.161V138.161Z" fill="#ffb81c"/>
</svg>
