<svg width="300" height="300" viewBox="0 0 300 300" fill="none" xmlns="http://www.w3.org/2000/svg">
<circle cx="150" cy="150" r="150" fill="#fdc400"/>
<path d="M179.66 140.245C176.61 140.397 173.591 140.934 170.675 141.843C169.46 142.219 168.277 142.643 167.054 143.154C154.264 148.558 140.93 157.447 132.113 168.735C130.213 171.21 128.439 173.779 126.797 176.433C126.38 177.333 126.164 178.314 126.164 179.307C126.164 180.299 126.38 181.28 126.797 182.18C127.197 183.039 127.738 183.825 128.396 184.507C129.363 185.538 129.299 185.642 130.954 185.714C130.898 182.292 135.342 175.178 137.349 172.923C147.189 161.62 157.493 153.626 171.906 147.527C187.022 141.132 194.289 147.527 190.436 157.415C189.442 160.212 188.036 162.845 186.263 165.225L180.428 172.284C176.527 176.936 162.721 188.527 157.461 191.309C159.635 184.035 163.137 170.222 167.613 163.531C169.26 161.029 169.892 161.46 170.995 160.133C170.282 159.159 169.28 158.435 168.132 158.065C166.983 157.694 165.747 157.697 164.6 158.071C163.456 158.675 162.481 159.554 161.762 160.629C155.727 168.519 149.947 190.83 148.804 197.145C144.375 201.765 146.973 204.075 146.973 204.075C145.271 211.821 143.912 221.806 147.245 227.513C149.108 230.623 152.465 232.901 155.814 231.318C154.959 229.72 153.976 229.576 153.344 227.857C152.713 226.138 152.473 222.685 153.296 214.228L154.16 207.209C154.376 205.778 154.847 203.684 154.999 202.005V201.925C155.119 201.725 162.194 196.737 163.944 195.586C169.644 191.229 177.83 185.258 184.728 178.263C191.771 171.229 197.366 163.291 197.758 155.121C198.062 144.21 189.668 139.765 179.66 140.245Z" fill="#C40044"/>
<path d="M255.312 191.03C253.67 192.922 251.589 194.385 249.253 195.29L248.605 195.49C246.151 196.178 245.847 192.293 246.391 187.272C247.19 179.886 249.82 170.022 250.148 168.559C250.196 168.351 250.244 168.151 250.3 167.935C251.019 165.05 251.963 161.428 252.218 159.406C252.282 159.01 252.298 158.607 252.266 158.207C252.146 157 250.028 156.888 248.333 157.327C247.93 157.433 247.539 157.581 247.166 157.767C246.825 157.955 246.506 158.18 246.215 158.439C244.384 160.037 243.018 163.299 241.834 167.008C240.043 172.705 238.922 178.59 238.493 184.547C237.118 186.881 235.391 190.142 233.457 193.02C231.187 196.409 228.661 199.279 226.095 199.543C221.154 200.015 226.039 182.996 226.726 180.757C227.414 178.855 228.717 177.304 228.653 175.777C228.589 174.25 225.287 174.099 223.584 174.81C220.595 176.129 218.364 181.277 216.126 186.681C215.91 187.169 208.468 203.58 204.887 204.627C196.094 199.951 214 154.721 219.044 173.539C222.242 172.604 222.665 169.134 219.132 166.824C218.283 166.251 217.353 165.806 216.374 165.505C206.118 162.156 200.386 172.268 197.261 180.326C194.767 186.401 192.608 194.355 193.943 200.95C195.078 206.138 199.811 210.023 205.135 208.608C209.22 207.513 213.928 198.216 216.902 194.555C217.173 200.055 220.635 204.947 226.318 203.444C229.516 202.589 232.274 200.047 234.424 197.497L234.584 197.305C236.119 195.349 237.458 193.247 238.581 191.03C238.732 192.997 239.25 194.92 240.108 196.697C240.307 197.069 240.532 197.427 240.779 197.768C241.33 198.521 242.052 199.132 242.886 199.549C243.721 199.966 244.643 200.178 245.576 200.167C246.659 200.173 247.737 200.014 248.773 199.695C252.578 198.504 255.704 195.434 258.07 192.74C260.676 189.982 266.991 180.222 265.544 176.753C263.897 177.496 259.853 186.209 255.312 191.03Z" fill="#C40044"/>
<path d="M248.111 153.347C249.002 154.002 250.114 154.286 251.21 154.137C252.307 153.987 253.302 153.417 253.986 152.547C254.767 151.524 255.276 150.319 255.465 149.046C256.864 141.492 254.186 138.086 250.317 141.612C249.082 142.813 248.026 144.186 247.183 145.688C245.632 148.302 245.872 150.605 246.935 152.139C247.252 152.609 247.65 153.018 248.111 153.347V153.347Z" fill="#C40044"/>
<path d="M89.3602 225.435C91.2068 214.084 94.3084 201.014 95.5794 195.938C98.4572 184.267 103.573 167.959 105.284 166.816C105.372 164.906 101.047 164.778 97.0583 169.446C95.6833 171.045 91.0469 183.835 87.1779 198.528C86.5064 200.854 86.3785 201.398 85.8109 203.7C84.7553 203.001 83.6025 202.463 82.3896 202.101C74.9473 199.855 69.9112 204.995 66.5698 210.934C65.4276 212.995 64.4287 215.132 63.58 217.329C63.4601 217.649 63.3322 217.969 63.2203 218.281C61.2938 223.605 60.3985 229.856 61.3417 234.66C63.7399 243.549 70.087 241.679 71.7337 241.223C75.0192 240.344 78.6325 234.308 81.4623 230.119C81.1266 238.793 82.8692 244.333 88.2331 242.91C87.6575 240.687 87.8254 236.634 88.4089 231.774C88.6887 229.8 89.0005 227.649 89.3602 225.435ZM71.5579 237.298C69.2477 236.379 69.1598 231.327 70.3189 225.619C70.4548 225.043 70.6066 224.452 70.7665 223.868C71.3686 221.684 72.0945 219.535 72.9408 217.433C76.4501 208.752 81.6701 201.965 84.6998 207.841L84.404 209.296C83.6686 212.317 82.4375 217.026 81.5822 219.919C81.3264 220.719 81.0546 221.558 80.7828 222.389C80.0873 224.444 79.3279 226.506 78.4966 228.425C76.5541 232.893 74.2358 236.531 71.5579 237.298Z" fill="#C40044"/>
<path d="M140.257 204.131C136.452 207.553 135.581 208.472 130.449 209.168C130.313 201.302 126.452 184.578 115.62 187.472C114.68 187.796 113.815 188.308 113.08 188.977C112.344 189.647 111.754 190.459 111.344 191.365C110.544 191.062 109.489 191.181 107.97 191.581C102.183 193.052 98.5534 203.204 98.5694 213.844C98.5694 224.74 103.366 234.54 116.276 230.903C123.862 228.784 128.554 220.998 130.009 213.316C134.398 212.237 141.44 209.823 140.257 204.131ZM115.524 226.802C109.129 228.681 107.187 219.08 107.203 214.012C107.203 207.393 108.65 199.895 111.328 196.425C113.438 202.381 119.138 208.584 124.022 211.134C124.637 218.872 120.121 225.403 115.524 226.802ZM116.268 192.101C119.633 191.541 121.863 195.93 123.111 200.047C123.764 202.222 124.274 204.439 124.637 206.681C120.097 204.811 112.071 192.804 116.268 192.109V192.101Z" fill="#C40044"/>
<path d="M167.365 83.1365C167.411 82.0361 167.358 80.9338 167.205 79.8431C165.399 67.3727 149.97 65.646 136.781 71.1617C123.99 76.5656 110.657 85.4627 101.839 96.7421C99.9346 99.2128 98.1576 101.779 96.5155 104.432C96.0987 105.333 95.8828 106.313 95.8828 107.306C95.8828 108.298 96.0987 109.279 96.5155 110.18C96.9133 111.04 97.4539 111.826 98.1143 112.506C99.0736 113.537 99.0176 113.641 100.664 113.713C100.608 110.292 105.053 103.185 107.059 100.923C116.908 89.6115 127.204 81.6177 141.625 75.5264C156.741 69.1313 164.008 75.5264 160.147 85.4068C159.158 88.2058 157.751 90.839 155.974 93.2168L150.146 100.275C146.237 104.928 132.44 116.519 127.18 119.301C129.346 112.026 132.856 98.2129 137.324 91.5221C138.971 89.02 139.602 89.4517 140.706 88.1247C139.991 87.1535 138.988 86.4317 137.841 86.0616C136.693 85.6915 135.458 85.6917 134.31 86.0623C133.168 86.6677 132.195 87.5499 131.481 88.6283C125.437 96.5102 119.658 118.829 118.523 125.144C114.094 129.757 116.684 132.067 116.684 132.067C114.989 139.821 113.622 149.797 116.956 155.513C118.818 158.614 122.176 160.893 125.533 159.31C124.678 157.711 123.687 157.567 123.055 155.849C122.424 154.13 122.184 150.677 123.007 142.219L123.879 135.208C124.094 133.77 124.566 131.675 124.718 130.004V129.925C124.838 129.717 131.912 124.737 133.663 123.577C139.355 119.221 147.54 113.249 154.447 106.255C159.147 101.554 163.24 96.4543 165.502 91.1464C166.598 88.6094 167.229 85.8964 167.365 83.1365V83.1365Z" fill="#C40044"/>
<path d="M170.548 136.336C172.083 136.845 173.736 136.887 175.296 136.456C176.195 136.166 177.015 135.674 177.694 135.017C181.123 131.995 184.665 125.336 187.071 122.402C187.343 127.91 190.804 132.794 196.488 131.292C199.685 130.436 202.443 127.894 204.593 125.344C205.303 124.495 205.959 123.603 206.56 122.674C207.768 120.855 208.822 118.938 209.709 116.943C210.401 118.944 211.538 120.761 213.035 122.258C215.857 124.976 220.037 126.088 225.889 124.441C231.94 122.754 236.153 117.454 238.351 111.483C238.901 109.979 239.329 108.434 239.63 106.862C240.622 106.615 241.757 106.295 242.9 105.887C246.777 104.504 250.782 102.066 249.87 97.6774C246.673 100.523 245.578 101.634 242.34 102.33C241.677 102.466 240.933 102.594 240.062 102.706C239.934 94.8476 236.065 78.1244 225.241 81.0182C224.724 81.1663 224.231 81.3898 223.779 81.6817C222.566 82.4707 221.593 83.5765 220.965 84.8793C220.165 84.5755 219.11 84.6874 217.591 85.0951C212.291 86.438 208.798 95.0634 208.263 104.664C208.215 105.559 208.191 106.455 208.191 107.358C208.184 109.098 208.318 110.836 208.59 112.554C207.511 114.393 206.192 116.767 204.801 119.061C202.267 123.162 199.293 127.055 196.304 127.367C191.364 127.83 196.248 110.811 196.927 108.573C197.623 106.67 198.926 105.12 198.862 103.593C198.798 102.066 195.488 101.914 193.794 102.634C190.796 103.945 188.574 109.093 186.335 114.496C186.12 114.984 178.677 131.403 175.088 132.443C166.295 127.766 184.209 82.545 189.245 101.363C192.443 100.419 192.874 96.9579 189.333 94.6397C188.485 94.0699 187.559 93.6257 186.583 93.3208C176.327 89.9713 170.595 100.084 167.462 108.141C164.968 114.217 162.809 122.179 164.152 128.765C164.478 130.47 165.238 132.062 166.358 133.388C167.478 134.714 168.921 135.729 170.548 136.336V136.336ZM232.724 93.6005L232.796 93.8483C233.414 95.9471 233.897 98.0831 234.243 100.243C229.71 98.3649 221.684 86.3581 225.873 85.6626C226.49 85.5534 227.125 85.6227 227.704 85.8625C230.07 86.7898 231.7 90.2831 232.724 93.6005ZM220.941 89.9793C223.051 95.9347 228.743 102.138 233.635 104.688C234.251 112.418 229.734 118.949 225.13 120.356C218.734 122.234 216.792 112.634 216.808 107.566C216.848 100.947 218.271 93.4407 220.949 89.9793H220.941Z" fill="#C40044"/>
<path d="M170.37 89.1399C170.734 89.4507 171.204 89.6084 171.681 89.5796C173.28 89.2918 172.976 84.6874 176.477 83.4643C181.138 81.9615 184.911 86.438 191.402 84.7034C194.919 83.7601 197.597 77.7167 196.926 73.9516C195.623 73.8717 195.015 75.1507 194.176 76.4937C189.1 84.1198 184.127 75.8382 177.804 77.5329C175.756 78.1541 173.968 79.4288 172.712 81.1621C171.034 83.471 170.206 86.2899 170.37 89.1399V89.1399Z" fill="#C40044"/>
<path d="M70.0642 96.3184C61.7506 99.6039 55.0358 110.771 51.7503 122.978C49.7678 130.348 49.0324 138.102 49.9597 144.721C50.3704 148.245 51.4966 151.648 53.2692 154.721C60.3837 166.201 73.7974 157.975 72.5583 143.114C70.5199 143.834 71.7589 143.33 71.0395 144.809C69.1369 148.918 67.0425 154.026 62.0304 154.402C59.864 154.634 58.9608 153.506 57.8736 152.004C50.0317 141.316 59.6722 106.207 71.3272 101.019C75.564 99.2042 79.1213 101.594 81.1517 115.895C83.406 131.339 78.9853 155.529 68.985 168.503C64.9881 173.779 60.1918 177.72 55.7313 177.64C54.9895 177.613 54.2562 177.473 53.5569 177.224C50.1675 176.033 47.1139 172.14 44.9076 164.146C43.4527 158.966 42.9571 151.932 43.3568 144.393C43.6331 139.213 44.2985 134.062 45.3472 128.981C47.1698 120.236 50.1435 112.026 54.1405 106.399C56.1709 103.417 60.016 98.6606 63.6052 97.0858C63.9249 96.9404 64.2565 96.8227 64.5964 96.7341C64.5405 96.5822 64.4765 96.4463 64.4126 96.3104C64.1824 95.7972 63.8515 95.3353 63.4396 94.9522C63.0276 94.5691 62.543 94.2726 62.0144 94.0802C60.6796 93.5121 59.1859 93.4384 57.8017 93.8723C55.3475 94.5518 52.8775 96.4303 50.887 98.6686C35.6347 116.055 31.5978 147.095 37.7771 167.919C39.9194 175.114 43.8524 179.111 48.297 180.901C50.7566 181.894 53.4181 182.283 56.059 182.036L56.7864 181.949C61.7666 181.309 66.9866 178.535 71.5351 174.45C86.1159 161.276 91.8395 132.019 88.0264 113.649C86.2757 104.936 81.3915 91.8259 70.0642 96.3184Z" fill="#C40044"/>
<path d="M67.584 91.5541L68.0957 91.3463C69.6882 90.7011 71.3656 90.2892 73.0758 90.1232L73.5235 89.8754C76.5515 82.4214 81.734 76.0401 88.4082 71.5474C95.0825 67.0547 102.945 64.6548 110.991 64.6548H111.039C116.88 56.8372 125.357 51.4019 134.899 49.3559C144.441 47.3099 154.402 48.7919 162.935 53.5274C170.719 52.1979 178.723 53.2043 185.936 56.4197C193.149 59.635 199.248 64.915 203.463 71.5935C209.211 72.6138 214.667 74.8753 219.451 78.2204C220.712 77.1056 222.206 76.2863 223.824 75.8222C224.643 75.6029 225.481 75.4558 226.326 75.3825C220.793 70.7665 214.272 67.4844 207.269 65.7899C202.933 59.8058 197.239 54.9361 190.654 51.5814C184.07 48.2267 176.783 46.4827 169.394 46.4928C167.606 46.4968 165.82 46.6116 164.046 46.8365C157.601 43.657 150.512 42.0022 143.326 42.0002C135.925 41.9771 128.627 43.7317 122.046 47.1163C116.646 49.9042 111.832 53.7035 107.865 58.3077C99.4879 58.8703 91.4158 61.6734 84.4928 66.4237C77.5698 71.174 72.0503 77.6971 68.5114 85.3109C66.689 86.3761 64.9398 87.5619 63.2754 88.8602C63.5552 88.9561 63.819 89.06 64.0748 89.1719C65.405 89.6992 66.603 90.5124 67.584 91.5541V91.5541Z" fill="white"/>
<path d="M57.9691 187.192C57.4735 187.264 56.9858 187.328 56.5062 187.376C55.8187 187.432 55.1073 187.464 54.4118 187.464C53.4523 187.464 52.4938 187.402 51.542 187.28C51.7786 196.336 54.645 205.127 59.7916 212.581C60.7752 210.324 61.9408 208.15 63.277 206.082C59.9716 200.322 58.1478 193.831 57.9691 187.192Z" fill="white"/>
<path d="M242.268 115.975C246.556 121.674 249.249 128.412 250.07 135.496C251.037 135.093 252.075 134.884 253.123 134.881C254.321 134.878 255.501 135.169 256.561 135.728C255.671 126.426 252.012 117.605 246.057 110.404C245.433 110.659 244.786 110.907 244.09 111.139C243.607 112.795 242.997 114.412 242.268 115.975V115.975Z" fill="white"/>
<path d="M231.123 207.241C228.939 215.979 223.899 223.737 216.803 229.284C209.706 234.831 200.961 237.848 191.954 237.858C191.626 237.858 191.314 237.818 190.986 237.81C184.772 244.54 176.448 248.949 167.39 250.311C158.331 251.673 149.079 249.905 141.161 245.3C132.531 248.013 123.241 247.754 114.775 244.566C106.31 241.378 99.1572 235.445 94.4606 227.713C93.885 231.462 93.5013 234.652 93.3574 237.106C99.0194 243.747 106.423 248.676 114.734 251.339C123.045 254.001 131.934 254.29 140.401 252.175C149.009 256.515 158.749 258.083 168.284 256.663C177.818 255.243 186.679 250.905 193.648 244.245C203.994 243.856 213.92 240.051 221.874 233.424C229.829 226.798 235.364 217.722 237.614 207.617C238.862 206.703 240.063 205.727 241.212 204.691C239.795 204.102 238.516 203.225 237.455 202.117C235.651 204.173 233.51 205.906 231.123 207.241V207.241Z" fill="white"/>
</svg>
