<svg id="Camada_1" data-name="Camada 1" xmlns="http://www.w3.org/2000/svg" viewBox="0 0 56 56"><defs><style>.cls-1{fill:#7b4d35;}</style></defs><path class="cls-1" d="M34.34,15.07H21.66a6.56,6.56,0,0,0-6.55,6.55V34.3a6.56,6.56,0,0,0,6.55,6.55H34.34a6.56,6.56,0,0,0,6.55-6.55V21.62A6.56,6.56,0,0,0,34.34,15.07ZM28.13,35.78A7.82,7.82,0,1,1,36,28,7.83,7.83,0,0,1,28.13,35.78Zm8.28-14.3a1.87,1.87,0,1,1,1.86-1.86A1.87,1.87,0,0,1,36.41,21.48Z"/><path class="cls-1" d="M28.13,23a5,5,0,1,0,5,5A5,5,0,0,0,28.13,23Z"/><path class="cls-1" d="M28,.92A27.08,27.08,0,1,0,55.08,28,27.07,27.07,0,0,0,28,.92ZM43.88,34.3a9.55,9.55,0,0,1-9.54,9.54H21.66a9.55,9.55,0,0,1-9.54-9.54V21.62a9.54,9.54,0,0,1,9.54-9.53H34.34a9.54,9.54,0,0,1,9.54,9.53Z"/></svg>