<svg width="289" height="270" viewBox="0 0 289 270" fill="none" xmlns="http://www.w3.org/2000/svg">
<g clip-path="url(#clip0)">
<path d="M180.97 122.84C177.154 123.031 173.378 123.703 169.73 124.84C168.21 125.31 166.73 125.84 165.2 126.48C149.2 133.24 132.52 144.36 121.49 158.48C119.114 161.577 116.895 164.791 114.84 168.11C114.319 169.237 114.049 170.463 114.049 171.705C114.049 172.947 114.319 174.173 114.84 175.3C115.342 176.374 116.017 177.357 116.84 178.21C118.05 179.5 117.97 179.63 120.04 179.72C119.97 175.44 125.53 166.54 128.04 163.72C140.35 149.58 153.24 139.58 171.27 131.95C190.18 123.95 199.27 131.95 194.45 144.32C193.207 147.819 191.448 151.112 189.23 154.09L181.93 162.92C177.05 168.74 159.78 183.24 153.2 186.72C155.92 177.62 160.3 160.34 165.9 151.97C167.96 148.84 168.75 149.38 170.13 147.72C169.239 146.501 167.986 145.596 166.549 145.132C165.112 144.669 163.566 144.672 162.13 145.14C160.7 145.896 159.48 146.995 158.58 148.34C151.03 158.21 143.8 186.12 142.37 194.02C136.83 199.8 140.08 202.69 140.08 202.69C137.95 212.38 136.25 224.87 140.42 232.01C142.75 235.9 146.95 238.75 151.14 236.77C150.07 234.77 148.84 234.59 148.05 232.44C147.26 230.29 146.96 225.97 147.99 215.39L149.07 206.61C149.34 204.82 149.93 202.2 150.12 200.1V200C150.27 199.75 159.12 193.51 161.31 192.07C168.44 186.62 178.68 179.15 187.31 170.4C196.12 161.6 203.12 151.67 203.61 141.45C203.99 127.8 193.49 122.24 180.97 122.84Z" fill="white"/>
<path d="M275.61 186.37C273.555 188.738 270.953 190.567 268.03 191.7L267.22 191.95C264.15 192.81 263.77 187.95 264.45 181.67C265.45 172.43 268.74 160.09 269.15 158.26C269.21 158 269.27 157.75 269.34 157.48C270.24 153.87 271.42 149.34 271.74 146.81C271.82 146.314 271.84 145.811 271.8 145.31C271.65 143.8 269 143.66 266.88 144.21C266.375 144.342 265.886 144.527 265.42 144.76C264.993 144.995 264.594 145.277 264.23 145.6C261.94 147.6 260.23 151.68 258.75 156.32C256.509 163.446 255.106 170.809 254.57 178.26C252.85 181.18 250.69 185.26 248.27 188.86C245.43 193.1 242.27 196.69 239.06 197.02C232.88 197.61 238.99 176.32 239.85 173.52C240.71 171.14 242.34 169.2 242.26 167.29C242.18 165.38 238.05 165.19 235.92 166.08C232.18 167.73 229.39 174.17 226.59 180.93C226.32 181.54 217.01 202.07 212.53 203.38C201.53 197.53 223.93 140.95 230.24 164.49C234.24 163.32 234.77 158.98 230.35 156.09C229.287 155.373 228.125 154.817 226.9 154.44C214.07 150.25 206.9 162.9 202.99 172.98C199.87 180.58 197.17 190.53 198.84 198.78C200.26 205.27 206.18 210.13 212.84 208.36C217.95 206.99 223.84 195.36 227.56 190.78C227.9 197.66 232.23 203.78 239.34 201.9C243.34 200.83 246.79 197.65 249.48 194.46L249.68 194.22C251.6 191.774 253.274 189.144 254.68 186.37C254.868 188.832 255.516 191.236 256.59 193.46C256.839 193.925 257.12 194.373 257.43 194.8C258.118 195.742 259.022 196.506 260.066 197.028C261.109 197.55 262.263 197.814 263.43 197.8C264.785 197.808 266.134 197.609 267.43 197.21C272.19 195.72 276.1 191.88 279.06 188.51C282.32 185.06 290.22 172.85 288.41 168.51C286.35 169.44 281.29 180.34 275.61 186.37Z" fill="white"/>
<path d="M266.6 139.23C267.715 140.051 269.105 140.405 270.477 140.218C271.849 140.032 273.094 139.319 273.95 138.23C274.927 136.95 275.564 135.443 275.8 133.85C277.55 124.4 274.2 120.14 269.36 124.55C267.815 126.053 266.495 127.77 265.44 129.65C263.5 132.92 263.8 135.8 265.13 137.72C265.525 138.307 266.023 138.819 266.6 139.23V139.23Z" fill="white"/>
<path d="M68.01 229.41C70.32 215.21 74.2 198.86 75.79 192.51C79.39 177.91 85.79 157.51 87.93 156.08C88.04 153.69 82.63 153.53 77.64 159.37C75.92 161.37 70.12 177.37 65.28 195.75C64.44 198.66 64.28 199.34 63.57 202.22C62.2495 201.346 60.8073 200.672 59.29 200.22C49.98 197.41 43.6801 203.84 39.5001 211.27C38.0713 213.848 36.8216 216.521 35.76 219.27C35.61 219.67 35.4501 220.07 35.3101 220.46C32.9001 227.12 31.78 234.94 32.96 240.95C35.96 252.07 43.9 249.73 45.96 249.16C50.07 248.06 54.5901 240.51 58.1301 235.27C57.7101 246.12 59.89 253.05 66.6 251.27C65.88 248.49 66.09 243.42 66.82 237.34C67.17 234.87 67.56 232.18 68.01 229.41ZM45.74 244.25C42.85 243.1 42.7401 236.78 44.1901 229.64C44.3601 228.92 44.5501 228.18 44.7501 227.45C45.5032 224.717 46.4113 222.03 47.47 219.4C51.86 208.54 58.39 200.05 62.18 207.4L61.8101 209.22C60.8901 213 59.35 218.89 58.28 222.51C57.96 223.51 57.62 224.56 57.28 225.6C56.41 228.17 55.46 230.75 54.42 233.15C51.99 238.74 49.09 243.29 45.74 244.25Z" fill="white"/>
<path d="M131.68 202.76C126.92 207.04 125.83 208.19 119.41 209.06C119.24 199.22 114.41 178.3 100.86 181.92C99.6838 182.324 98.6024 182.965 97.6824 183.802C96.7624 184.64 96.0232 185.657 95.5103 186.79C94.5103 186.41 93.1903 186.56 91.2903 187.06C84.0503 188.9 79.5103 201.6 79.5303 214.91C79.5303 228.54 85.5304 240.8 101.68 236.25C111.17 233.6 117.04 223.86 118.86 214.25C124.35 212.9 133.16 209.88 131.68 202.76ZM100.74 231.12C92.7404 233.47 90.3103 221.46 90.3303 215.12C90.3303 206.84 92.1404 197.46 95.4904 193.12C98.1304 200.57 105.26 208.33 111.37 211.52C112.14 221.2 106.49 229.37 100.74 231.12ZM101.67 187.71C105.88 187.01 108.67 192.5 110.23 197.65C111.048 200.372 111.686 203.145 112.14 205.95C106.46 203.61 96.4204 188.59 101.67 187.72V187.71Z" fill="white"/>
<path d="M165.59 51.4C165.648 50.0235 165.581 48.6445 165.39 47.28C163.13 31.68 143.83 29.52 127.33 36.42C111.33 43.18 94.6505 54.31 83.6205 68.42C81.2375 71.5108 79.0146 74.7216 76.9604 78.04C76.439 79.1668 76.1689 80.3935 76.1689 81.635C76.1689 82.8766 76.439 84.1033 76.9604 85.23C77.4581 86.306 78.1343 87.2899 78.9604 88.14C80.1604 89.43 80.0905 89.56 82.1505 89.65C82.0805 85.37 87.6405 76.48 90.1505 73.65C102.47 59.5 115.35 49.5 133.39 41.88C152.3 33.88 161.39 41.88 156.56 54.24C155.324 57.7415 153.564 61.0355 151.34 64.01L144.05 72.84C139.16 78.66 121.9 93.16 115.32 96.64C118.03 87.54 122.42 70.26 128.01 61.89C130.07 58.76 130.86 59.3 132.24 57.64C131.346 56.4251 130.092 55.5222 128.657 55.0592C127.221 54.5961 125.676 54.5964 124.24 55.06C122.811 55.8174 121.594 56.921 120.7 58.27C113.14 68.13 105.91 96.05 104.49 103.95C98.9505 109.72 102.19 112.61 102.19 112.61C100.07 122.31 98.3605 134.79 102.53 141.94C104.86 145.82 109.06 148.67 113.26 146.69C112.19 144.69 110.95 144.51 110.16 142.36C109.37 140.21 109.07 135.89 110.1 125.31L111.19 116.54C111.46 114.74 112.05 112.12 112.24 110.03V109.93C112.39 109.67 121.24 103.44 123.43 101.99C130.55 96.54 140.79 89.07 149.43 80.32C155.31 74.44 160.43 68.06 163.26 61.42C164.631 58.2464 165.42 54.8525 165.59 51.4V51.4Z" fill="white"/>
<path d="M169.57 117.95C171.492 118.587 173.559 118.639 175.51 118.1C176.635 117.738 177.661 117.122 178.51 116.3C182.8 112.52 187.23 104.19 190.24 100.52C190.58 107.41 194.91 113.52 202.02 111.64C206.02 110.57 209.47 107.39 212.16 104.2C213.048 103.138 213.869 102.022 214.62 100.86C216.132 98.5843 217.45 96.1859 218.56 93.69C219.425 96.1932 220.848 98.4671 222.72 100.34C226.25 103.74 231.48 105.13 238.8 103.07C246.37 100.96 251.64 94.33 254.39 86.86C255.078 84.9794 255.613 83.0465 255.99 81.08C257.23 80.77 258.65 80.37 260.08 79.86C264.93 78.13 269.94 75.08 268.8 69.59C264.8 73.15 263.43 74.54 259.38 75.41C258.55 75.58 257.62 75.74 256.53 75.88C256.37 66.05 251.53 45.13 237.99 48.75C237.343 48.9352 236.726 49.2149 236.16 49.58C234.644 50.567 233.427 51.9503 232.64 53.58C231.64 53.2 230.32 53.34 228.42 53.85C221.79 55.53 217.42 66.32 216.75 78.33C216.69 79.45 216.66 80.57 216.66 81.7C216.652 83.8766 216.819 86.0503 217.16 88.2C215.81 90.5 214.16 93.47 212.42 96.34C209.25 101.47 205.53 106.34 201.79 106.73C195.61 107.31 201.72 86.02 202.57 83.22C203.44 80.84 205.07 78.9 204.99 76.99C204.91 75.08 200.77 74.89 198.65 75.79C194.9 77.43 192.12 83.87 189.32 90.63C189.05 91.24 179.74 111.78 175.25 113.08C164.25 107.23 186.66 50.66 192.96 74.2C196.96 73.02 197.5 68.69 193.07 65.79C192.009 65.0772 190.851 64.5214 189.63 64.14C176.8 59.95 169.63 72.6 165.71 82.68C162.59 90.28 159.89 100.24 161.57 108.48C161.978 110.613 162.928 112.604 164.33 114.263C165.731 115.922 167.536 117.192 169.57 117.95V117.95ZM247.35 64.49L247.44 64.8C248.213 67.4254 248.818 70.0975 249.25 72.8C243.58 70.45 233.54 55.43 238.78 54.56C239.552 54.4233 240.346 54.5101 241.07 54.81C244.03 55.97 246.07 60.34 247.35 64.49ZM232.61 59.96C235.25 67.41 242.37 75.17 248.49 78.36C249.26 88.03 243.61 96.2 237.85 97.96C229.85 100.31 227.42 88.3 227.44 81.96C227.49 73.68 229.27 64.29 232.62 59.96H232.61Z" fill="white"/>
<path d="M169.35 58.91C169.805 59.2988 170.393 59.496 170.99 59.46C172.99 59.1 172.61 53.34 176.99 51.81C182.82 49.93 187.54 55.53 195.66 53.36C200.06 52.18 203.41 44.62 202.57 39.91C200.94 39.81 200.18 41.41 199.13 43.09C192.78 52.63 186.56 42.27 178.65 44.39C176.088 45.1672 173.85 46.7617 172.28 48.93C170.18 51.8184 169.145 55.3447 169.35 58.91V58.91Z" fill="white"/>
<path d="M43.8696 67.89C33.4696 72 25.0696 85.97 20.9596 101.24C18.4796 110.46 17.5596 120.16 18.7196 128.44C19.2334 132.848 20.6422 137.105 22.8596 140.95C31.7596 155.31 48.5396 145.02 46.9896 126.43C44.4396 127.33 45.9896 126.7 45.0896 128.55C42.7096 133.69 40.0896 140.08 33.8196 140.55C31.1096 140.84 29.9796 139.43 28.6196 137.55C18.8096 124.18 30.8696 80.26 45.4496 73.77C50.7496 71.5 55.1996 74.49 57.7396 92.38C60.5596 111.7 55.0296 141.96 42.5196 158.19C37.5196 164.79 31.5196 169.72 25.9396 169.62C25.0118 169.586 24.0944 169.411 23.2196 169.1C18.9796 167.61 15.1596 162.74 12.3996 152.74C10.5796 146.26 9.95961 137.46 10.4596 128.03C10.8053 121.55 11.6377 115.105 12.9496 108.75C15.2296 97.81 18.9496 87.54 23.9496 80.5C26.4896 76.77 31.2996 70.82 35.7896 68.85C36.1896 68.6681 36.6044 68.5209 37.0296 68.41C36.9596 68.22 36.8796 68.05 36.7996 67.88C36.5116 67.2379 36.0977 66.6602 35.5824 66.181C35.0671 65.7017 34.4609 65.3307 33.7996 65.09C32.1298 64.3794 30.2613 64.2872 28.5296 64.83C25.4596 65.68 22.3697 68.03 19.8797 70.83C0.79965 92.58 -4.25037 131.41 3.47963 157.46C6.15963 166.46 11.0796 171.46 16.6396 173.7C19.7165 174.942 23.046 175.429 26.3496 175.12L27.2596 175.01C33.4896 174.21 40.0196 170.74 45.7096 165.63C63.9496 149.15 71.1096 112.55 66.3396 89.57C64.1496 78.67 58.0396 62.27 43.8696 67.89Z" fill="white"/>
<path d="M40.7698 61.93L41.4099 61.67C43.4021 60.8629 45.5004 60.3476 47.6398 60.14L48.1998 59.83C51.9877 50.5054 58.4709 42.5225 66.8201 36.9023C75.1694 31.2821 85.0052 28.28 95.0698 28.28H95.1299C102.437 18.5005 113.042 11.7011 124.979 9.14162C136.915 6.58216 149.375 8.43611 160.05 14.36C169.788 12.6969 179.801 13.9559 188.824 17.9781C197.847 22.0004 205.477 28.6055 210.75 36.96C217.94 38.2363 224.765 41.0654 230.75 45.25C232.327 43.8555 234.196 42.8306 236.22 42.25C237.245 41.9757 238.292 41.7916 239.35 41.7C232.428 35.9255 224.271 31.8197 215.51 29.7C210.086 22.214 202.963 16.1223 194.726 11.9257C186.489 7.72902 177.374 5.54734 168.13 5.55998C165.893 5.56508 163.659 5.70869 161.44 5.98998C153.378 2.01253 144.509 -0.0574967 135.52 -0.0600203C126.262 -0.0889567 117.133 2.10593 108.9 6.33998C102.145 9.82758 96.1221 14.5804 91.1599 20.34C80.6803 21.0438 70.5825 24.5503 61.9221 30.4928C53.2617 36.4353 46.3569 44.5954 41.9299 54.12C39.6501 55.4525 37.462 56.9358 35.3799 58.56C35.7299 58.68 36.0599 58.81 36.3799 58.95C38.044 59.6095 39.5426 60.6269 40.7698 61.93V61.93Z" fill="#FFB81C"/>
<path d="M28.7402 181.57C28.1202 181.66 27.5102 181.74 26.9102 181.8C26.0502 181.87 25.1602 181.91 24.2902 181.91C23.0899 181.909 21.8908 181.832 20.7002 181.68C20.9962 193.008 24.5819 204.005 31.0202 213.33C32.2505 210.506 33.7087 207.787 35.3802 205.2C31.2453 197.994 28.9637 189.875 28.7402 181.57Z" fill="#FFB81C"/>
<path d="M259.29 92.48C264.655 99.6083 268.024 108.037 269.05 116.9C270.261 116.395 271.559 116.134 272.87 116.13C274.368 116.127 275.845 116.491 277.17 117.19C276.057 105.554 271.48 94.5182 264.03 85.51C263.25 85.83 262.44 86.14 261.57 86.43C260.965 88.5017 260.203 90.5243 259.29 92.48V92.48Z" fill="#FFB81C"/>
<path d="M245.35 206.65C242.618 217.581 236.312 227.286 227.435 234.225C218.558 241.164 207.617 244.939 196.35 244.95C195.94 244.95 195.55 244.9 195.14 244.89C187.366 253.309 176.953 258.826 165.622 260.529C154.29 262.233 142.716 260.021 132.81 254.26C122.014 257.654 110.393 257.331 99.8029 253.342C89.2128 249.354 80.265 241.931 74.3898 232.26C73.6698 236.95 73.1898 240.94 73.0098 244.01C80.0926 252.318 89.3538 258.484 99.7509 261.814C110.148 265.145 121.268 265.507 131.86 262.86C142.627 268.29 154.812 270.251 166.74 268.475C178.667 266.699 189.752 261.272 198.47 252.94C211.412 252.454 223.829 247.694 233.779 239.404C243.73 231.115 250.654 219.762 253.47 207.12C255.031 205.977 256.533 204.756 257.97 203.46C256.197 202.723 254.597 201.627 253.27 200.24C251.014 202.812 248.335 204.98 245.35 206.65V206.65Z" fill="#FFB81C"/>
</g>
<defs>
<clipPath id="clip0">
<rect width="288.71" height="269.12" fill="white"/>
</clipPath>
</defs>
</svg>
