<svg id="Camada_1" data-name="Camada 1" xmlns="http://www.w3.org/2000/svg" viewBox="0 0 56 56"><defs><style>.cls-1{fill:#7b4d35;}</style></defs><path class="cls-1" d="M52.34,16.26A27.19,27.19,0,0,0,34.5,1.72,27,27,0,0,0,10.3,7.44a27.14,27.14,0,0,0-9.08,16c-.07.45-.12.91-.19,1.36A1.16,1.16,0,0,1,1,25v6l.18,1.19a25.87,25.87,0,0,0,1.26,5A27,27,0,0,0,22.34,54.5a27.39,27.39,0,0,0,6.76.56A27,27,0,0,0,47.23,47,27.18,27.18,0,0,0,53,38.34a26.23,26.23,0,0,0,1.71-6.13A27.58,27.58,0,0,0,55,28.93,26.81,26.81,0,0,0,52.34,16.26ZM47,13.64l0,0L28,30.27l-19-16.63ZM6,40.47V15.22l14,12.62Zm3,1.38a1.11,1.11,0,0,1,.2-.22l6.93-6.18,5-4.48c.4-.35.8-.69,1.19-1,.12-.11.19-.1.31,0l5.24,4.38.18.14,1.46-1.26,3.77-3.28c.11-.1.19-.08.29,0l5.35,4.51,5.47,4.63,3.1,2.62.14.17ZM50.2,40.44,35.77,27.84,50.2,15.25Z"/></svg>