<svg xmlns="http://www.w3.org/2000/svg" viewBox="0 0 701.11 636.56"><defs><style>.cls-1{fill:#e57200;}.cls-2{fill:#ffb81c;}</style></defs><g id="Camada_2" data-name="Camada 2"><g id="Camada_1-2" data-name="Camada 1"><path class="cls-1" d="M631.79,89.6,626,137.21l-42,23.1a93.64,93.64,0,0,0-44.35,110.1L552,309.71l-20.63,35.64a93.53,93.53,0,0,0-9.23,21.73A91.61,91.61,0,0,0,518.73,392a92.6,92.6,0,0,0,30,68.39l30.9,28.75-1.1,42.18c0,1.34-.1,2.68-.18,4.07A92.89,92.89,0,0,0,657,625.45L698.18,632l2.93,4.54V10.46A93.46,93.46,0,0,0,631.79,89.6Z"/><path class="cls-2" d="M0,0A140.52,140.52,0,0,0,15.3,16.7L60.2,58.47l-1.6,61.3c-.05,1.94-.14,3.88-.27,5.9A135,135,0,0,0,172.56,256.53l59.85,9.55L265.29,317a135,135,0,0,0,163.86,52.77l49.9-19.7,43.09,17,6.8,2.69a135.1,135.1,0,0,0,49.75,9.62c39,0,74.94-16.22,101.25-45.69L701.11,310V0Z"/></g></g></svg>