<svg id="Camada_1" data-name="Camada 1" xmlns="http://www.w3.org/2000/svg" viewBox="0 0 56 56"><defs><style>.cls-1{fill:#7b4d35;}</style></defs><path class="cls-1" d="M55.73,26.56A27,27,0,0,0,28.54.26,27,27,0,0,0,1.38,26.05q0,.6,0,1.2A26.76,26.76,0,0,0,5.06,40.86a.4.4,0,0,1,0,.32L.27,55.41a.25.25,0,0,0,.31.32L15.4,51a.42.42,0,0,1,.31,0,27.22,27.22,0,0,0,40-23.79C55.74,27.05,55.73,26.56,55.73,26.56ZM10.19,39.4A21.54,21.54,0,0,1,6.47,27.25c0-.7,0-1.4.1-2.13a22.09,22.09,0,0,1,44,.41c.06.67.08,1.21.08,1.71A22.09,22.09,0,0,1,19.22,47.1c-.82-.38-2.35-1.3-2.84-1.59a.4.4,0,0,0-.32,0L8.6,47.84a.22.22,0,0,1-.28-.28l2.41-7.1a.38.38,0,0,0-.05-.36C10.53,39.9,10.29,39.56,10.19,39.4Z"/><path class="cls-1" d="M41.48,33.25a5.86,5.86,0,0,0-1.35-.83c-.46-.23-3.87-1.9-4.51-2.13s-1.17-.42-1.72.41c-.43.62-1.66,2.07-2.07,2.52s-.54.43-1.16.12a22.5,22.5,0,0,1-5.23-3.2,19.14,19.14,0,0,1-3.61-4.46c-.29-.49-.1-.71.25-1.07s1.18-1.38,1.26-1.49.42-.79.42-.79A1.4,1.4,0,0,0,23.71,21c-.11-.21-1.85-4.42-2-4.81-.5-1.19-1-1.25-1.54-1.22-.25,0-2.56,0-3.29.83l-.13.14a7.28,7.28,0,0,0-2.23,5.43,8.12,8.12,0,0,0,.35,2.28,15,15,0,0,0,2.38,4.59s1.71,2.38,2.56,3.35a23.1,23.1,0,0,0,8.74,6.55C32.42,39.65,34.09,40,35,40a13.57,13.57,0,0,0,1.47-.23c1.19-.11,4-1.58,4.61-3.24A5.41,5.41,0,0,0,41.48,33.25Z"/></svg>