<svg xmlns="http://www.w3.org/2000/svg" viewBox="0 0 1057.02 490.16"><defs><style>.cls-1{fill:#7b4d35;}.cls-2{fill:#fff;}.cls-3{fill:#ffb81c;}</style></defs><g id="Camada_2" data-name="Camada 2"><g id="Camada_1-2" data-name="Camada 1"><path class="cls-1" d="M1047.41,14.12,1055.24,0H3A134,134,0,0,0,0,28.1C0,66,15.5,101.29,43.65,127.47l44.9,41.77-1.61,61.3c0,1.94-.13,3.88-.26,5.9A135,135,0,0,0,200.91,367.3l59.84,9.55,32.89,50.91a134.94,134.94,0,0,0,163.85,52.77l49.9-19.7,49.9,19.7A135.1,135.1,0,0,0,607,490.16c39,0,75-16.22,101.26-45.69L747,401.15l58-2c63.64-2.17,117.83-49.12,128.85-111.66l10.33-58.59,50.06-32.17A135.46,135.46,0,0,0,1057,82.45a138.62,138.62,0,0,0-2-21.81Z"/><path class="cls-2" d="M580.23,218.72a45.36,45.36,0,0,0-11.24,2q-2.28.7-4.52,1.64c-16,6.76-32.68,17.88-43.71,32A114.4,114.4,0,0,0,514.1,264a8.56,8.56,0,0,0,0,7.19,10.29,10.29,0,0,0,2,2.91c1.2,1.29,1.13,1.42,3.19,1.51-.07-4.28,5.49-13.18,8-16,12.31-14.14,25.2-24.14,43.24-31.77,18.9-8,28,0,23.17,12.37A37.23,37.23,0,0,1,588.4,250l-7.3,8.83c-4.88,5.82-22.14,20.32-28.73,23.8,2.72-9.1,7.11-26.38,12.7-34.75,2.06-3.13,2.85-2.59,4.23-4.25a7.16,7.16,0,0,0-8-2.58,9.73,9.73,0,0,0-3.54,3.2c-7.56,9.87-14.79,37.78-16.22,45.68-5.53,5.78-2.29,8.67-2.29,8.67-2.13,9.69-3.83,22.18.34,29.32,2.33,3.89,6.53,6.74,10.72,4.76-1.06-2-2.3-2.18-3.09-4.33s-1.09-6.47-.06-17.05l1.09-8.78c.27-1.79.85-4.41,1-6.51l0-.1c.14-.25,9-6.49,11.18-7.93,7.13-5.45,17.37-12.92,26-21.67,8.8-8.8,15.81-18.73,16.29-28.95C603.25,223.68,592.75,218.12,580.23,218.72Z"/><path class="cls-2" d="M674.87,282.25a19.28,19.28,0,0,1-7.57,5.33l-.81.25c-3.08.86-3.46-4-2.77-10.28,1-9.24,4.29-21.58,4.69-23.41.06-.26.13-.51.19-.78.9-3.61,2.08-8.14,2.4-10.67a6.27,6.27,0,0,0,.06-1.5c-.15-1.51-2.8-1.65-4.92-1.1a7.43,7.43,0,0,0-1.45.55,6.35,6.35,0,0,0-1.2.84c-2.28,2-4,6.08-5.48,10.72a91,91,0,0,0-2.85,11.55,87.5,87.5,0,0,0-1.32,10.39c-1.72,2.92-3.89,7-6.31,10.6-2.83,4.24-6,7.83-9.21,8.16-6.17.59-.07-20.7.79-23.5.87-2.38,2.49-4.32,2.41-6.23s-4.21-2.1-6.33-1.21c-3.75,1.65-6.53,8.09-9.34,14.85-.26.61-9.58,21.14-14.06,22.45-11-5.85,11.4-62.43,17.71-38.89,4-1.17,4.54-5.51.11-8.4a13,13,0,0,0-3.45-1.65c-12.82-4.19-20,8.46-23.91,18.54-3.12,7.6-5.82,17.55-4.15,25.8,1.42,6.49,7.34,11.35,13.95,9.58,5.11-1.37,11-13,14.72-17.58.35,6.88,4.68,13,11.79,11.12,4-1.07,7.45-4.25,10.14-7.44l.19-.24a46.76,46.76,0,0,0,5.05-7.85,20,20,0,0,0,1.91,7.09,10.54,10.54,0,0,0,.85,1.34,7.3,7.3,0,0,0,6,3,13.39,13.39,0,0,0,4-.59c4.75-1.49,8.66-5.33,11.62-8.7,3.27-3.45,11.16-15.66,9.35-20C685.58,265.32,680.55,276.22,674.87,282.25Z"/><path class="cls-2" d="M665.86,235.11a5.33,5.33,0,0,0,7.35-1,9.4,9.4,0,0,0,1.85-4.38c1.75-9.45-1.6-13.71-6.44-9.3a22.71,22.71,0,0,0-3.92,5.1c-1.94,3.27-1.64,6.15-.3,8.07A5.71,5.71,0,0,0,665.86,235.11Z"/><path class="cls-2" d="M467.27,325.29c2.31-14.2,6.2-30.55,7.78-36.9,3.6-14.6,10.05-35,12.14-36.43.11-2.39-5.3-2.55-10.28,3.29-1.73,2-7.52,18-12.37,36.38-.83,2.91-1,3.59-1.7,6.47a16.13,16.13,0,0,0-4.29-2c-9.31-2.81-15.61,3.62-19.79,11.05a62.72,62.72,0,0,0-3.73,8c-.16.4-.31.8-.46,1.19-2.4,6.66-3.53,14.48-2.35,20.49,3,11.12,10.94,8.78,13,8.21,4.11-1.1,8.64-8.65,12.17-13.89-.42,10.85,1.76,17.78,8.47,16-.71-2.78-.5-7.85.23-13.93C466.43,330.75,466.82,328.06,467.27,325.29ZM445,340.13c-2.88-1.15-3-7.47-1.55-14.61.17-.72.36-1.46.56-2.19a74.69,74.69,0,0,1,2.72-8.05c4.39-10.86,10.93-19.35,14.71-12l-.37,1.82c-.92,3.78-2.46,9.67-3.53,13.29-.32,1-.66,2.05-1,3.09-.86,2.57-1.82,5.15-2.86,7.55C451.25,334.62,448.36,339.17,445,340.13Z"/><path class="cls-2" d="M530.94,298.64c-4.76,4.28-5.85,5.43-12.27,6.3-.17-9.84-5-30.76-18.54-27.14a9.12,9.12,0,0,0-5.36,4.87c-1-.38-2.31-.23-4.22.27-7.24,1.84-11.78,14.54-11.75,27.85,0,13.63,6,25.89,22.14,21.34,9.49-2.65,15.36-12.39,17.19-22C523.56,308.78,532.42,305.76,530.94,298.64ZM500,327c-8,2.35-10.43-9.66-10.41-16,0-8.28,1.82-17.66,5.17-22,2.64,7.45,9.76,15.21,15.88,18.4C511.4,317.08,505.76,325.25,500,327Zm.93-43.41c4.21-.7,7,4.79,8.57,9.94a66.39,66.39,0,0,1,1.9,8.3C505.72,299.49,495.69,284.47,500.93,283.6Z"/><path class="cls-2" d="M564.85,147.28a21.93,21.93,0,0,0-.2-4.12c-2.26-15.6-21.55-17.76-38.06-10.86-16,6.76-32.68,17.89-43.71,32a116.54,116.54,0,0,0-6.65,9.62,8.52,8.52,0,0,0,0,7.19,10.5,10.5,0,0,0,2,2.91c1.21,1.29,1.13,1.42,3.2,1.51-.07-4.28,5.49-13.17,7.95-16,12.32-14.15,25.21-24.15,43.24-31.77,18.91-8,28,0,23.18,12.36a37.07,37.07,0,0,1-5.22,9.77l-7.3,8.83c-4.88,5.82-22.15,20.32-28.73,23.8,2.71-9.1,7.1-26.38,12.7-34.75,2.06-3.13,2.85-2.59,4.23-4.25a7.2,7.2,0,0,0-8-2.58,9.7,9.7,0,0,0-3.55,3.21c-7.56,9.86-14.78,37.78-16.21,45.68-5.54,5.77-2.29,8.66-2.29,8.66-2.13,9.7-3.83,22.18.34,29.33,2.33,3.88,6.53,6.73,10.72,4.75-1.07-2-2.3-2.18-3.09-4.33s-1.09-6.47-.06-17.05l1.08-8.77c.27-1.8.86-4.42,1.05-6.51l0-.1c.15-.26,9-6.49,11.19-7.94,7.13-5.45,17.37-12.92,26-21.67,5.89-5.88,11-12.26,13.83-18.9A28.88,28.88,0,0,0,564.85,147.28Z"/><path class="cls-2" d="M568.84,213.83a10.22,10.22,0,0,0,5.94.15,7.78,7.78,0,0,0,3-1.8c4.28-3.78,8.71-12.11,11.72-15.78.34,6.89,4.67,13,11.78,11.12,4-1.07,7.45-4.25,10.14-7.44a34,34,0,0,0,2.46-3.34,48,48,0,0,0,3.94-7.17,17.48,17.48,0,0,0,4.16,6.65c3.54,3.4,8.76,4.79,16.09,2.73,7.57-2.11,12.83-8.74,15.58-16.21a36.24,36.24,0,0,0,1.6-5.78c1.24-.31,2.66-.71,4.1-1.22,4.84-1.73,9.86-4.78,8.72-10.27-4,3.56-5.38,4.95-9.43,5.82-.82.17-1.76.33-2.84.47-.17-9.83-5-30.75-18.55-27.13a6.66,6.66,0,0,0-1.82.83,9.86,9.86,0,0,0-3.53,4c-1-.38-2.32-.24-4.22.27-6.63,1.68-11,12.47-11.66,24.48-.07,1.12-.1,2.24-.1,3.37a41.66,41.66,0,0,0,.5,6.5c-1.34,2.3-2.95,5.27-4.73,8.14-3.18,5.13-6.9,10-10.64,10.39-6.18.58-.07-20.71.79-23.51.86-2.38,2.49-4.32,2.41-6.23s-4.21-2.1-6.34-1.2c-3.74,1.64-6.53,8.08-9.33,14.84-.27.61-9.58,21.15-14.06,22.45-11-5.85,11.4-62.42,17.71-38.88,4-1.18,4.53-5.51.11-8.41a13.33,13.33,0,0,0-3.45-1.65c-12.83-4.19-20,8.46-23.91,18.54-3.12,7.6-5.82,17.56-4.15,25.8A12.65,12.65,0,0,0,568.84,213.83Zm77.78-53.46.09.31a64.3,64.3,0,0,1,1.81,8c-5.67-2.35-15.71-17.37-10.47-18.24a4.11,4.11,0,0,1,2.29.25C643.29,151.85,645.34,156.22,646.62,160.37Zm-14.74-4.53c2.64,7.45,9.77,15.21,15.88,18.4.77,9.67-4.88,17.84-10.64,19.6-8,2.35-10.42-9.66-10.4-16C626.75,169.56,628.53,160.17,631.88,155.84Z"/><path class="cls-2" d="M568.58,154.79a2.32,2.32,0,0,0,1.65.55c2-.36,1.61-6.12,6-7.65,5.83-1.88,10.56,3.72,18.67,1.55,4.41-1.18,7.75-8.74,6.92-13.45-1.64-.1-2.39,1.5-3.45,3.18-6.35,9.54-12.56-.82-20.48,1.3a12.28,12.28,0,0,0-6.36,4.54A15.46,15.46,0,0,0,568.58,154.79Z"/><path class="cls-2" d="M443.13,163.77c-10.39,4.11-18.79,18.08-22.9,33.35-2.49,9.22-3.4,18.92-2.25,27.2a32.42,32.42,0,0,0,4.15,12.51c8.89,14.36,25.67,4.07,24.13-14.52-2.55.9-1,.27-1.9,2.12-2.38,5.14-5,11.53-11.27,12-2.71.29-3.84-1.12-5.21-3-9.81-13.37,2.26-57.29,16.84-63.78,5.29-2.27,9.74.72,12.29,18.61,2.81,19.32-2.72,49.58-15.22,65.81-5,6.6-11,11.53-16.59,11.43a9.16,9.16,0,0,1-2.72-.52c-4.24-1.49-8.05-6.36-10.82-16.36-1.81-6.48-2.44-15.28-1.94-24.71a129.52,129.52,0,0,1,2.5-19.28c2.27-10.94,6-21.21,11-28.25,2.54-3.73,7.36-9.68,11.84-11.65a8,8,0,0,1,1.24-.44c-.07-.19-.15-.36-.23-.53a5.26,5.26,0,0,0-3-2.79,7.63,7.63,0,0,0-5.27-.26c-3.07.85-6.16,3.2-8.64,6-19.08,21.75-24.14,60.58-16.41,86.63,2.68,9,7.6,14,13.16,16.24a20.8,20.8,0,0,0,9.7,1.37l.91-.11c6.24-.8,12.76-4.27,18.46-9.38,18.23-16.48,25.39-53.08,20.63-76.06C463.42,174.55,457.3,158.15,443.13,163.77Z"/><path class="cls-3" d="M440,157.81l.65-.26A22.19,22.19,0,0,1,446.9,156l.57-.31a50.59,50.59,0,0,1,46.86-31.55h.07a50.47,50.47,0,0,1,64.92-13.92A50,50,0,0,1,610,132.85a50.27,50.27,0,0,1,20,8.29,14.11,14.11,0,0,1,5.46-3,18.36,18.36,0,0,1,3.13-.55,58.8,58.8,0,0,0-23.84-12,58.39,58.39,0,0,0-47.37-24.14,53.94,53.94,0,0,0-6.69.43,58.66,58.66,0,0,0-25.93-6.05,57.84,57.84,0,0,0-26.62,6.4,59.36,59.36,0,0,0-17.74,14A58.62,58.62,0,0,0,441.2,150a57.49,57.49,0,0,0-6.55,4.44c.34.12.68.25,1,.39A12.21,12.21,0,0,1,440,157.81Z"/><path class="cls-3" d="M428,277.45c-.61.09-1.22.17-1.83.23-.86.07-1.74.11-2.61.11a28.52,28.52,0,0,1-3.6-.23,58.39,58.39,0,0,0,10.32,31.65,57.77,57.77,0,0,1,4.36-8.13A50.19,50.19,0,0,1,428,277.45Z"/><path class="cls-3" d="M658.55,188.36a50.32,50.32,0,0,1,9.77,24.42,9.94,9.94,0,0,1,3.81-.77,9.18,9.18,0,0,1,4.3,1.06,57.48,57.48,0,0,0-5.06-18.81,58.48,58.48,0,0,0-8.08-12.87c-.78.32-1.59.63-2.45.92A43.75,43.75,0,0,1,658.55,188.36Z"/><path class="cls-3" d="M644.59,302.53a50.57,50.57,0,0,1-49,38.3c-.4,0-.8-.05-1.2-.06A50.38,50.38,0,0,1,532,350.14a50.59,50.59,0,0,1-58.41-22c-.73,4.69-1.21,8.68-1.39,11.75a58.65,58.65,0,0,0,58.85,18.85,58.37,58.37,0,0,0,66.61-9.92A58.62,58.62,0,0,0,652.74,303c1.57-1.15,3.06-2.37,4.5-3.66a13.8,13.8,0,0,1-4.7-3.22A30.38,30.38,0,0,1,644.59,302.53Z"/></g></g></svg>